<?xml version="1.0" encoding="UTF-8" standalone="no"?>
<svg
   id="Layer_1"
   viewBox="0 0 250 250"
   version="1.1"
   sodipodi:docname="logo.svg"
   inkscape:version="1.3.2 (091e20e, 2023-11-25, custom)"
   xmlns:inkscape="http://www.inkscape.org/namespaces/inkscape"
   xmlns:sodipodi="http://sodipodi.sourceforge.net/DTD/sodipodi-0.dtd"
   xmlns="http://www.w3.org/2000/svg"
   xmlns:svg="http://www.w3.org/2000/svg">
  <defs
     id="defs1" />
  <sodipodi:namedview
     id="namedview1"
     pagecolor="#ffffff"
     bordercolor="#000000"
     borderopacity="0.25"
     inkscape:showpageshadow="2"
     inkscape:pageopacity="0.0"
     inkscape:pagecheckerboard="0"
     inkscape:deskcolor="#d1d1d1"
     showgrid="false"
     inkscape:zoom="3.0210016"
     inkscape:cx="126.28262"
     inkscape:cy="93.843048"
     inkscape:window-width="1894"
     inkscape:window-height="1229"
     inkscape:window-x="156"
     inkscape:window-y="0"
     inkscape:window-maximized="0"
     inkscape:current-layer="Layer_1" />
  <ellipse
     style="fill:#49cb7d;fill-opacity:1;stroke-width:1.09047"
     id="path1"
     cx="125.51534"
     cy="122.29475"
     rx="118.95223"
     ry="117.55037" />
  <g
     id="g2"
     transform="matrix(0.24277367,0,0,0.24277367,80.96542,62.604808)">
    <g
       id="g1">
      <g
         transform="matrix(0.13333333,0,0,-0.13333333,-343.25663,787.99998)"
         fill="#000000"
         stroke="none"
         id="g6">
        <path
           d="m 4726,5474 c -3,-9 -6,-30 -6,-47 0,-17 -4,-56 -10,-86 -5,-31 -16,-103 -25,-161 -14,-108 -34,-230 -59,-380 -8,-47 -25,-143 -36,-215 -12,-71 -30,-177 -40,-235 -10,-58 -22,-130 -25,-160 -4,-30 -13,-82 -20,-115 -7,-33 -19,-107 -25,-165 -16,-141 -47,-346 -95,-620 -8,-47 -28,-166 -45,-265 -16,-99 -36,-216 -44,-260 -9,-44 -15,-99 -16,-123 0,-23 -7,-59 -15,-79 -17,-41 -14,-63 10,-63 16,0 141,96 213,164 57,54 68,77 77,161 3,39 11,90 16,115 6,25 16,92 23,150 7,58 38,260 69,450 31,190 61,381 67,425 11,89 14,108 95,600 31,193 66,407 77,476 11,70 24,133 29,140 19,30 29,-19 29,-150 v -135 l 73,-70 c 39,-39 167,-157 282,-262 318,-288 405,-368 458,-416 26,-25 72,-65 102,-89 78,-64 79,-73 11,-134 -32,-27 -101,-91 -154,-141 -53,-50 -117,-109 -142,-130 -25,-21 -81,-72 -125,-114 -44,-41 -176,-162 -292,-268 -117,-106 -213,-201 -213,-210 -5,-198 -2,-346 7,-349 6,-2 40,23 75,56 35,33 128,122 208,197 347,328 418,395 533,506 67,64 136,128 152,141 17,14 106,99 199,190 135,132 169,169 169,191 0,33 -18,53 -119,132 -45,35 -106,90 -136,123 -30,32 -99,99 -154,148 -54,49 -131,121 -170,159 -39,38 -147,139 -239,224 -93,85 -204,192 -249,236 -45,45 -121,117 -171,160 -49,43 -114,105 -143,137 -74,82 -175,177 -188,177 -7,0 -15,-7 -18,-16 z"
           id="path1-0" />
        <path
           d="m 1601,5263 c -93,-92 -307,-296 -426,-405 -38,-36 -102,-96 -141,-134 -39,-38 -134,-127 -210,-199 -289,-273 -459,-441 -462,-456 -2,-10 36,-52 99,-110 56,-52 217,-202 357,-334 140,-132 312,-293 383,-358 71,-65 129,-122 129,-126 0,-4 24,-27 53,-50 28,-23 109,-98 178,-167 117,-115 158,-143 160,-111 1,6 1,86 1,176 l -1,164 -78,80 c -43,43 -107,103 -143,131 -36,29 -101,89 -145,132 -44,43 -103,97 -130,119 -27,22 -92,81 -145,130 -52,50 -120,111 -151,137 -104,87 -200,188 -192,203 5,7 37,39 73,71 81,71 373,337 420,382 19,18 64,59 99,90 68,61 330,300 369,337 23,22 24,27 25,201 1,162 0,179 -16,182 -11,2 -50,-29 -106,-85 z"
           id="path2" />
        <path
           d="m 6985,5299 c -75,-11 -125,-31 -192,-75 -121,-80 -163,-175 -163,-364 0,-63 9,-174 20,-247 25,-167 35,-307 26,-367 -6,-38 -16,-56 -51,-89 -51,-50 -107,-95 -149,-121 -30,-18 -46,-34 -46,-48 0,-3 43,-40 96,-82 117,-91 142,-126 150,-203 7,-68 -13,-333 -28,-372 -5,-14 -12,-93 -15,-176 -5,-143 -4,-153 21,-225 58,-163 220,-260 435,-260 h 71 v 29 c 0,15 -14,58 -30,95 -29,63 -33,67 -95,95 -82,37 -110,69 -136,155 -20,64 -21,76 -10,165 7,53 19,157 27,231 8,74 17,149 20,166 8,46 -24,202 -49,238 -37,54 -77,90 -120,111 -23,11 -42,26 -42,33 0,7 22,25 50,40 30,16 66,49 91,82 36,47 45,68 59,141 14,79 14,100 0,235 -8,82 -22,185 -30,229 -20,109 -19,161 6,232 24,72 75,129 130,143 20,6 41,16 47,23 26,32 83,153 80,171 -3,18 -11,21 -58,22 -30,1 -82,-2 -115,-7 z"
           id="path3" />
        <path
           d="m 2704,5265 c -186,-34 -355,-105 -487,-204 -83,-62 -268,-250 -312,-316 -46,-70 -135,-247 -135,-270 0,-9 -7,-29 -15,-44 -58,-113 -75,-484 -31,-681 56,-247 165,-439 353,-622 117,-114 296,-229 438,-282 44,-16 255,-56 296,-56 44,0 50,18 47,136 l -3,109 -40,11 c -22,7 -80,21 -129,33 -103,24 -190,62 -284,125 -143,96 -251,210 -303,321 -11,22 -32,64 -48,93 -49,89 -98,262 -108,382 -6,74 25,245 63,345 45,122 136,282 195,348 73,81 207,185 274,214 189,80 236,97 305,108 80,13 80,12 80,133 0,71 -4,112 -12,120 -15,15 -51,14 -144,-3 z"
           id="path4" />
        <path
           d="m 2970,5265 c -16,-19 -20,-192 -5,-212 6,-7 51,-20 100,-29 165,-28 333,-94 465,-183 85,-57 101,-72 169,-156 165,-204 251,-428 251,-657 0,-112 -5,-137 -56,-300 -22,-70 -105,-228 -158,-302 -45,-62 -154,-164 -226,-211 -153,-100 -214,-122 -510,-183 l -35,-7 -3,-104 c -2,-67 1,-108 9,-117 15,-18 134,-18 214,0 33,8 84,17 114,21 77,10 258,93 344,157 225,168 373,343 456,538 17,41 36,83 42,93 11,19 34,119 50,217 7,40 9,138 6,255 -5,200 -17,267 -70,400 -43,106 -49,118 -134,246 -70,107 -101,142 -191,222 -196,174 -216,187 -442,268 -136,50 -364,75 -390,44 z"
           id="path5" />
        <path
           d="m 7320,4079 c 15,-16 33,-29 38,-29 11,0 22,-33 22,-65 0,-21 -17,-49 -57,-92 -13,-13 -23,-25 -23,-27 0,-9 58,3 84,17 30,16 66,8 66,-13 0,-6 20,-10 45,-10 49,0 56,8 25,28 -11,7 -20,18 -20,26 0,7 -9,21 -20,31 -11,10 -20,28 -20,39 0,33 11,66 23,66 8,0 57,46 57,54 0,8 -83,-3 -93,-13 -14,-14 -40,-14 -54,0 -6,6 -32,12 -57,14 l -45,3 z"
           id="path6" />
      </g>
    </g>
  </g>
</svg>
